<mxfile host="app.diagrams.net" agent="Mozilla/5.0 (Windows NT 10.0; Win64; x64) AppleWebKit/537.36 (KHTML, like Gecko) Chrome/126.0.0.0 Safari/537.36" version="24.7.7">
  <diagram name="第 1 页" id="pUntowRnoI_7Z-hXx59B">
    <mxGraphModel dx="1195" dy="615" grid="1" gridSize="10" guides="1" tooltips="1" connect="1" arrows="1" fold="1" page="1" pageScale="1" pageWidth="1169" pageHeight="827" math="0" shadow="0">
      <root>
        <mxCell id="0" />
        <mxCell id="1" parent="0" />
        <mxCell id="2Wx2unt4PNLrUicuaQ1I-90" value="IPU1" style="rounded=0;whiteSpace=wrap;html=1;verticalAlign=top;" vertex="1" parent="1">
          <mxGeometry x="820" y="80" width="200" height="170" as="geometry" />
        </mxCell>
        <mxCell id="2Wx2unt4PNLrUicuaQ1I-89" value="IPU0" style="rounded=0;whiteSpace=wrap;html=1;verticalAlign=top;" vertex="1" parent="1">
          <mxGeometry x="590" y="80" width="200" height="170" as="geometry" />
        </mxCell>
        <mxCell id="2Wx2unt4PNLrUicuaQ1I-2" value="L1 Cache" style="rounded=1;whiteSpace=wrap;html=1;fillColor=#dae8fc;gradientColor=#7ea6e0;strokeColor=#6c8ebf;fontSize=14;" vertex="1" parent="1">
          <mxGeometry x="40" y="120" width="70" height="20" as="geometry" />
        </mxCell>
        <mxCell id="2Wx2unt4PNLrUicuaQ1I-3" value="L2 Cache" style="rounded=1;whiteSpace=wrap;html=1;fillColor=#dae8fc;gradientColor=#7ea6e0;strokeColor=#6c8ebf;fontSize=14;" vertex="1" parent="1">
          <mxGeometry x="40" y="140" width="70" height="30" as="geometry" />
        </mxCell>
        <mxCell id="2Wx2unt4PNLrUicuaQ1I-4" value="L3 Cache" style="rounded=1;whiteSpace=wrap;html=1;fontSize=14;fillColor=#fff2cc;gradientColor=#ffd966;strokeColor=#d6b656;" vertex="1" parent="1">
          <mxGeometry x="40" y="170" width="180" height="40" as="geometry" />
        </mxCell>
        <mxCell id="2Wx2unt4PNLrUicuaQ1I-5" value="L1 Cache" style="rounded=1;whiteSpace=wrap;html=1;fillColor=#dae8fc;gradientColor=#7ea6e0;strokeColor=#6c8ebf;fontSize=14;" vertex="1" parent="1">
          <mxGeometry x="150" y="120" width="70" height="20" as="geometry" />
        </mxCell>
        <mxCell id="2Wx2unt4PNLrUicuaQ1I-7" value="L2 Cache" style="rounded=1;whiteSpace=wrap;html=1;fillColor=#dae8fc;gradientColor=#7ea6e0;strokeColor=#6c8ebf;fontSize=14;" vertex="1" parent="1">
          <mxGeometry x="150" y="140" width="70" height="30" as="geometry" />
        </mxCell>
        <mxCell id="2Wx2unt4PNLrUicuaQ1I-8" value="Memory" style="rounded=1;whiteSpace=wrap;html=1;fontSize=14;fillColor=#f8cecc;gradientColor=#ea6b66;strokeColor=#b85450;" vertex="1" parent="1">
          <mxGeometry x="40" y="210" width="400" height="40" as="geometry" />
        </mxCell>
        <mxCell id="2Wx2unt4PNLrUicuaQ1I-16" value="L1 Cache" style="rounded=1;whiteSpace=wrap;html=1;fillColor=#dae8fc;gradientColor=#7ea6e0;strokeColor=#6c8ebf;fontSize=14;" vertex="1" parent="1">
          <mxGeometry x="260" y="120" width="70" height="20" as="geometry" />
        </mxCell>
        <mxCell id="2Wx2unt4PNLrUicuaQ1I-18" value="L2 Cache" style="rounded=1;whiteSpace=wrap;html=1;fillColor=#dae8fc;gradientColor=#7ea6e0;strokeColor=#6c8ebf;fontSize=14;" vertex="1" parent="1">
          <mxGeometry x="260" y="140" width="70" height="30" as="geometry" />
        </mxCell>
        <mxCell id="2Wx2unt4PNLrUicuaQ1I-19" value="L3 Cache" style="rounded=1;whiteSpace=wrap;html=1;fontSize=14;fillColor=#fff2cc;gradientColor=#ffd966;strokeColor=#d6b656;" vertex="1" parent="1">
          <mxGeometry x="260" y="170" width="180" height="40" as="geometry" />
        </mxCell>
        <mxCell id="2Wx2unt4PNLrUicuaQ1I-20" value="L1 Cache" style="rounded=1;whiteSpace=wrap;html=1;fillColor=#dae8fc;gradientColor=#7ea6e0;strokeColor=#6c8ebf;fontSize=14;" vertex="1" parent="1">
          <mxGeometry x="370" y="120" width="70" height="20" as="geometry" />
        </mxCell>
        <mxCell id="2Wx2unt4PNLrUicuaQ1I-22" value="L2 Cache" style="rounded=1;whiteSpace=wrap;html=1;fillColor=#dae8fc;gradientColor=#7ea6e0;strokeColor=#6c8ebf;fontSize=14;" vertex="1" parent="1">
          <mxGeometry x="370" y="140" width="70" height="30" as="geometry" />
        </mxCell>
        <mxCell id="2Wx2unt4PNLrUicuaQ1I-30" value="scratchpad&lt;div&gt;SRAM&lt;/div&gt;" style="rounded=1;whiteSpace=wrap;html=1;fillColor=#dae8fc;gradientColor=#7ea6e0;strokeColor=#6c8ebf;fontSize=14;" vertex="1" parent="1">
          <mxGeometry x="600" y="140" width="70" height="50" as="geometry" />
        </mxCell>
        <mxCell id="2Wx2unt4PNLrUicuaQ1I-34" value="scratchpad&lt;div&gt;SRAM&lt;/div&gt;" style="rounded=1;whiteSpace=wrap;html=1;fillColor=#dae8fc;gradientColor=#7ea6e0;strokeColor=#6c8ebf;fontSize=14;" vertex="1" parent="1">
          <mxGeometry x="710" y="140" width="70" height="50" as="geometry" />
        </mxCell>
        <mxCell id="2Wx2unt4PNLrUicuaQ1I-38" value="scratchpad&lt;div&gt;SRAM&lt;/div&gt;" style="rounded=1;whiteSpace=wrap;html=1;fillColor=#dae8fc;gradientColor=#7ea6e0;strokeColor=#6c8ebf;fontSize=14;" vertex="1" parent="1">
          <mxGeometry x="830" y="140" width="70" height="50" as="geometry" />
        </mxCell>
        <mxCell id="2Wx2unt4PNLrUicuaQ1I-42" value="scratchpad&lt;div&gt;SRAM&lt;/div&gt;" style="rounded=1;whiteSpace=wrap;html=1;fillColor=#dae8fc;gradientColor=#7ea6e0;strokeColor=#6c8ebf;fontSize=14;" vertex="1" parent="1">
          <mxGeometry x="940" y="140" width="70" height="50" as="geometry" />
        </mxCell>
        <mxCell id="2Wx2unt4PNLrUicuaQ1I-45" value="" style="shape=partialRectangle;whiteSpace=wrap;html=1;top=0;bottom=0;fillColor=none;rotation=90;" vertex="1" parent="1">
          <mxGeometry x="590" y="367" width="10" height="46.88" as="geometry" />
        </mxCell>
        <mxCell id="2Wx2unt4PNLrUicuaQ1I-57" value="" style="group" vertex="1" connectable="0" parent="1">
          <mxGeometry x="40" y="80" width="70" height="40" as="geometry" />
        </mxCell>
        <mxCell id="2Wx2unt4PNLrUicuaQ1I-1" value="core 0" style="rounded=1;whiteSpace=wrap;html=1;fillColor=#dae8fc;gradientColor=#7ea6e0;strokeColor=#6c8ebf;fontSize=14;align=right;" vertex="1" parent="2Wx2unt4PNLrUicuaQ1I-57">
          <mxGeometry width="70" height="40" as="geometry" />
        </mxCell>
        <mxCell id="2Wx2unt4PNLrUicuaQ1I-56" value="" style="shape=image;html=1;verticalLabelPosition=bottom;verticalAlign=top;imageAspect=1;aspect=fixed;image=img/clipart/Gear_128x128.png" vertex="1" parent="2Wx2unt4PNLrUicuaQ1I-57">
          <mxGeometry x="1" y="5" width="25.57" height="30" as="geometry" />
        </mxCell>
        <mxCell id="2Wx2unt4PNLrUicuaQ1I-58" value="" style="group" vertex="1" connectable="0" parent="1">
          <mxGeometry x="150" y="80" width="70" height="40" as="geometry" />
        </mxCell>
        <mxCell id="2Wx2unt4PNLrUicuaQ1I-59" value="core 1" style="rounded=1;whiteSpace=wrap;html=1;fillColor=#dae8fc;gradientColor=#7ea6e0;strokeColor=#6c8ebf;fontSize=14;align=right;" vertex="1" parent="2Wx2unt4PNLrUicuaQ1I-58">
          <mxGeometry width="70" height="40" as="geometry" />
        </mxCell>
        <mxCell id="2Wx2unt4PNLrUicuaQ1I-60" value="" style="shape=image;html=1;verticalLabelPosition=bottom;verticalAlign=top;imageAspect=1;aspect=fixed;image=img/clipart/Gear_128x128.png" vertex="1" parent="2Wx2unt4PNLrUicuaQ1I-58">
          <mxGeometry x="1" y="5" width="25.57" height="30" as="geometry" />
        </mxCell>
        <mxCell id="2Wx2unt4PNLrUicuaQ1I-61" value="" style="group" vertex="1" connectable="0" parent="1">
          <mxGeometry x="260" y="80" width="70" height="40" as="geometry" />
        </mxCell>
        <mxCell id="2Wx2unt4PNLrUicuaQ1I-62" value="core 2" style="rounded=1;whiteSpace=wrap;html=1;fillColor=#dae8fc;gradientColor=#7ea6e0;strokeColor=#6c8ebf;fontSize=14;align=right;" vertex="1" parent="2Wx2unt4PNLrUicuaQ1I-61">
          <mxGeometry width="70" height="40" as="geometry" />
        </mxCell>
        <mxCell id="2Wx2unt4PNLrUicuaQ1I-63" value="" style="shape=image;html=1;verticalLabelPosition=bottom;verticalAlign=top;imageAspect=1;aspect=fixed;image=img/clipart/Gear_128x128.png" vertex="1" parent="2Wx2unt4PNLrUicuaQ1I-61">
          <mxGeometry x="1" y="5" width="25.57" height="30" as="geometry" />
        </mxCell>
        <mxCell id="2Wx2unt4PNLrUicuaQ1I-64" value="" style="group" vertex="1" connectable="0" parent="1">
          <mxGeometry x="370" y="80" width="70" height="40" as="geometry" />
        </mxCell>
        <mxCell id="2Wx2unt4PNLrUicuaQ1I-65" value="core 3" style="rounded=1;whiteSpace=wrap;html=1;fillColor=#dae8fc;gradientColor=#7ea6e0;strokeColor=#6c8ebf;fontSize=14;align=right;" vertex="1" parent="2Wx2unt4PNLrUicuaQ1I-64">
          <mxGeometry width="70" height="40" as="geometry" />
        </mxCell>
        <mxCell id="2Wx2unt4PNLrUicuaQ1I-66" value="" style="shape=image;html=1;verticalLabelPosition=bottom;verticalAlign=top;imageAspect=1;aspect=fixed;image=img/clipart/Gear_128x128.png" vertex="1" parent="2Wx2unt4PNLrUicuaQ1I-64">
          <mxGeometry x="1" y="5" width="25.57" height="30" as="geometry" />
        </mxCell>
        <mxCell id="2Wx2unt4PNLrUicuaQ1I-25" value="" style="curved=1;endArrow=classic;html=1;rounded=0;strokeColor=#FF8000;strokeWidth=5;" edge="1" parent="1">
          <mxGeometry width="50" height="50" relative="1" as="geometry">
            <mxPoint x="85" y="100" as="sourcePoint" />
            <mxPoint x="175" y="100" as="targetPoint" />
            <Array as="points">
              <mxPoint x="85" y="150" />
              <mxPoint x="85" y="180" />
              <mxPoint x="175" y="180" />
              <mxPoint x="175" y="150" />
            </Array>
          </mxGeometry>
        </mxCell>
        <mxCell id="2Wx2unt4PNLrUicuaQ1I-27" value="" style="curved=1;endArrow=classic;html=1;rounded=0;strokeColor=#6600CC;strokeWidth=5;" edge="1" parent="1">
          <mxGeometry width="50" height="50" relative="1" as="geometry">
            <mxPoint x="70" y="100" as="sourcePoint" />
            <mxPoint x="310" y="100" as="targetPoint" />
            <Array as="points">
              <mxPoint x="70" y="180" />
              <mxPoint x="70" y="240" />
              <mxPoint x="310" y="240" />
              <mxPoint x="310" y="190" />
            </Array>
          </mxGeometry>
        </mxCell>
        <mxCell id="2Wx2unt4PNLrUicuaQ1I-77" value="" style="group" vertex="1" connectable="0" parent="1">
          <mxGeometry x="600" y="100" width="70" height="40" as="geometry" />
        </mxCell>
        <mxCell id="2Wx2unt4PNLrUicuaQ1I-78" value="core 0" style="rounded=1;whiteSpace=wrap;html=1;fillColor=#dae8fc;gradientColor=#7ea6e0;strokeColor=#6c8ebf;fontSize=14;align=right;" vertex="1" parent="2Wx2unt4PNLrUicuaQ1I-77">
          <mxGeometry width="70" height="40" as="geometry" />
        </mxCell>
        <mxCell id="2Wx2unt4PNLrUicuaQ1I-79" value="" style="shape=image;html=1;verticalLabelPosition=bottom;verticalAlign=top;imageAspect=1;aspect=fixed;image=img/clipart/Gear_128x128.png" vertex="1" parent="2Wx2unt4PNLrUicuaQ1I-77">
          <mxGeometry x="1" y="5" width="25.57" height="30" as="geometry" />
        </mxCell>
        <mxCell id="2Wx2unt4PNLrUicuaQ1I-80" value="" style="group" vertex="1" connectable="0" parent="1">
          <mxGeometry x="710" y="100" width="70" height="40" as="geometry" />
        </mxCell>
        <mxCell id="2Wx2unt4PNLrUicuaQ1I-81" value="core 1" style="rounded=1;whiteSpace=wrap;html=1;fillColor=#dae8fc;gradientColor=#7ea6e0;strokeColor=#6c8ebf;fontSize=14;align=right;" vertex="1" parent="2Wx2unt4PNLrUicuaQ1I-80">
          <mxGeometry width="70" height="40" as="geometry" />
        </mxCell>
        <mxCell id="2Wx2unt4PNLrUicuaQ1I-82" value="" style="shape=image;html=1;verticalLabelPosition=bottom;verticalAlign=top;imageAspect=1;aspect=fixed;image=img/clipart/Gear_128x128.png" vertex="1" parent="2Wx2unt4PNLrUicuaQ1I-80">
          <mxGeometry x="1" y="5" width="25.57" height="30" as="geometry" />
        </mxCell>
        <mxCell id="2Wx2unt4PNLrUicuaQ1I-83" value="" style="group" vertex="1" connectable="0" parent="1">
          <mxGeometry x="830" y="100" width="70" height="40" as="geometry" />
        </mxCell>
        <mxCell id="2Wx2unt4PNLrUicuaQ1I-84" value="core 2" style="rounded=1;whiteSpace=wrap;html=1;fillColor=#dae8fc;gradientColor=#7ea6e0;strokeColor=#6c8ebf;fontSize=14;align=right;" vertex="1" parent="2Wx2unt4PNLrUicuaQ1I-83">
          <mxGeometry width="70" height="40" as="geometry" />
        </mxCell>
        <mxCell id="2Wx2unt4PNLrUicuaQ1I-85" value="" style="shape=image;html=1;verticalLabelPosition=bottom;verticalAlign=top;imageAspect=1;aspect=fixed;image=img/clipart/Gear_128x128.png" vertex="1" parent="2Wx2unt4PNLrUicuaQ1I-83">
          <mxGeometry x="1" y="5" width="25.57" height="30" as="geometry" />
        </mxCell>
        <mxCell id="2Wx2unt4PNLrUicuaQ1I-86" value="" style="group" vertex="1" connectable="0" parent="1">
          <mxGeometry x="940" y="100" width="70" height="40" as="geometry" />
        </mxCell>
        <mxCell id="2Wx2unt4PNLrUicuaQ1I-87" value="core 3" style="rounded=1;whiteSpace=wrap;html=1;fillColor=#dae8fc;gradientColor=#7ea6e0;strokeColor=#6c8ebf;fontSize=14;align=right;" vertex="1" parent="2Wx2unt4PNLrUicuaQ1I-86">
          <mxGeometry width="70" height="40" as="geometry" />
        </mxCell>
        <mxCell id="2Wx2unt4PNLrUicuaQ1I-88" value="" style="shape=image;html=1;verticalLabelPosition=bottom;verticalAlign=top;imageAspect=1;aspect=fixed;image=img/clipart/Gear_128x128.png" vertex="1" parent="2Wx2unt4PNLrUicuaQ1I-86">
          <mxGeometry x="1" y="5" width="25.57" height="30" as="geometry" />
        </mxCell>
        <mxCell id="2Wx2unt4PNLrUicuaQ1I-94" value="" style="group" vertex="1" connectable="0" parent="1">
          <mxGeometry x="645" y="190" width="90" height="60" as="geometry" />
        </mxCell>
        <mxCell id="2Wx2unt4PNLrUicuaQ1I-46" value="NoC" style="curved=1;endArrow=classic;html=1;rounded=0;strokeColor=#FF8000;strokeWidth=5;shape=link;" edge="1" parent="2Wx2unt4PNLrUicuaQ1I-94">
          <mxGeometry y="20" width="50" height="50" relative="1" as="geometry">
            <mxPoint as="sourcePoint" />
            <mxPoint x="90" as="targetPoint" />
            <Array as="points">
              <mxPoint />
              <mxPoint y="30" />
              <mxPoint x="90" y="30" />
              <mxPoint x="90" />
            </Array>
            <mxPoint as="offset" />
          </mxGeometry>
        </mxCell>
        <mxCell id="2Wx2unt4PNLrUicuaQ1I-92" value="30~80ns" style="text;html=1;align=center;verticalAlign=middle;whiteSpace=wrap;rounded=0;" vertex="1" parent="2Wx2unt4PNLrUicuaQ1I-94">
          <mxGeometry x="15" y="30" width="60" height="30" as="geometry" />
        </mxCell>
        <mxCell id="2Wx2unt4PNLrUicuaQ1I-95" value="" style="group" vertex="1" connectable="0" parent="1">
          <mxGeometry x="875" y="190" width="90" height="60" as="geometry" />
        </mxCell>
        <mxCell id="2Wx2unt4PNLrUicuaQ1I-96" value="NoC" style="curved=1;endArrow=classic;html=1;rounded=0;strokeColor=#FF8000;strokeWidth=5;shape=link;" edge="1" parent="2Wx2unt4PNLrUicuaQ1I-95">
          <mxGeometry y="20" width="50" height="50" relative="1" as="geometry">
            <mxPoint as="sourcePoint" />
            <mxPoint x="90" as="targetPoint" />
            <Array as="points">
              <mxPoint />
              <mxPoint y="30" />
              <mxPoint x="90" y="30" />
              <mxPoint x="90" />
            </Array>
            <mxPoint as="offset" />
          </mxGeometry>
        </mxCell>
        <mxCell id="2Wx2unt4PNLrUicuaQ1I-97" value="30~80ns" style="text;html=1;align=center;verticalAlign=middle;whiteSpace=wrap;rounded=0;" vertex="1" parent="2Wx2unt4PNLrUicuaQ1I-95">
          <mxGeometry x="15" y="30" width="60" height="30" as="geometry" />
        </mxCell>
        <mxCell id="2Wx2unt4PNLrUicuaQ1I-98" value="" style="group" vertex="1" connectable="0" parent="1">
          <mxGeometry x="760" y="190" width="90" height="60" as="geometry" />
        </mxCell>
        <mxCell id="2Wx2unt4PNLrUicuaQ1I-99" value="NoC" style="curved=1;endArrow=classic;html=1;rounded=0;strokeColor=#FF0080;strokeWidth=5;shape=link;" edge="1" parent="2Wx2unt4PNLrUicuaQ1I-98">
          <mxGeometry y="20" width="50" height="50" relative="1" as="geometry">
            <mxPoint as="sourcePoint" />
            <mxPoint x="90" as="targetPoint" />
            <Array as="points">
              <mxPoint />
              <mxPoint y="30" />
              <mxPoint x="90" y="30" />
              <mxPoint x="90" />
            </Array>
            <mxPoint as="offset" />
          </mxGeometry>
        </mxCell>
        <mxCell id="2Wx2unt4PNLrUicuaQ1I-100" value="0.6~1.8us" style="text;html=1;align=center;verticalAlign=middle;whiteSpace=wrap;rounded=0;" vertex="1" parent="2Wx2unt4PNLrUicuaQ1I-98">
          <mxGeometry x="15" y="30" width="60" height="30" as="geometry" />
        </mxCell>
        <mxCell id="2Wx2unt4PNLrUicuaQ1I-101" value="4 cycles" style="text;html=1;align=center;verticalAlign=middle;whiteSpace=wrap;rounded=0;" vertex="1" parent="1">
          <mxGeometry x="450" y="115" width="60" height="30" as="geometry" />
        </mxCell>
        <mxCell id="2Wx2unt4PNLrUicuaQ1I-102" value="12 cycles" style="text;html=1;align=center;verticalAlign=middle;whiteSpace=wrap;rounded=0;" vertex="1" parent="1">
          <mxGeometry x="450" y="140" width="60" height="30" as="geometry" />
        </mxCell>
        <mxCell id="2Wx2unt4PNLrUicuaQ1I-103" value="~45 cycles&lt;div&gt;15ns?&lt;/div&gt;" style="text;html=1;align=center;verticalAlign=middle;whiteSpace=wrap;rounded=0;" vertex="1" parent="1">
          <mxGeometry x="450" y="175" width="60" height="30" as="geometry" />
        </mxCell>
        <mxCell id="2Wx2unt4PNLrUicuaQ1I-104" value="&lt;div&gt;50ns?&lt;/div&gt;" style="text;html=1;align=center;verticalAlign=middle;whiteSpace=wrap;rounded=0;" vertex="1" parent="1">
          <mxGeometry x="450" y="215" width="60" height="30" as="geometry" />
        </mxCell>
        <mxCell id="2Wx2unt4PNLrUicuaQ1I-105" value="3.0 GHz&lt;div&gt;0.33ns&lt;/div&gt;" style="text;html=1;align=center;verticalAlign=middle;whiteSpace=wrap;rounded=0;" vertex="1" parent="1">
          <mxGeometry x="450" y="85" width="60" height="30" as="geometry" />
        </mxCell>
        <mxCell id="2Wx2unt4PNLrUicuaQ1I-106" value="1.35 GHz&lt;div&gt;0.74ns&lt;/div&gt;" style="text;html=1;align=center;verticalAlign=middle;whiteSpace=wrap;rounded=0;" vertex="1" parent="1">
          <mxGeometry x="1020" y="105" width="60" height="30" as="geometry" />
        </mxCell>
        <mxCell id="2Wx2unt4PNLrUicuaQ1I-107" value="6 cycles" style="text;html=1;align=center;verticalAlign=middle;whiteSpace=wrap;rounded=0;" vertex="1" parent="1">
          <mxGeometry x="1020" y="150" width="60" height="30" as="geometry" />
        </mxCell>
      </root>
    </mxGraphModel>
  </diagram>
</mxfile>
